# xmcd
#
# Track frame offsets: 
#        150
#        14155
#        25395
#        36415
#        47848
#        58710
#        69058
#        80763
#        92603
#        103816
#        114356
#        125593
#        137050
#        148505
#        160295
#        170975
#        181645
#        193230
#        203588
#        215390
#
# Disc length: 3030 seconds
#
# Revision: 2
# Processed by: cddbd v1.5.2PL0 Copyright (c) Steve Scherf et al.
# Submitted via: ExactAudioCopyFreeDBPlugin 1.0
#
DISCID=270bd414
DTITLE=Patsy Cline - Patsy Cline
DYEAR=1900
DGENRE=Country
TTITLE0=A Church, A Courtroom And Then Goodbye
TTITLE1=Stop The World
TTITLE2=I Cried All The Way To The Altar
TTITLE3=Hungry For Love
TTITLE4=Honky Tonk Merry Go Round
TTITLE5=Three Cigarettes In An Ashtray
TTITLE6=Walkin' After Midnight
TTITLE7=I've Loved And Lost Again
TTITLE8=Stranger In My Arms
TTITLE9=Pick Me Up On Your Way Down
TTITLE10=Don't Ever Leave Me
TTITLE11=Cry Not For Me
TTITLE12=Just Out Of Reach
TTITLE13=Let The Teardrops Fall
TTITLE14=Lovesick Blues
TTITLE15=I Love You Honey
TTITLE16=Crazy Dreams
TTITLE17=How Can I Face Tomorrow
TTITLE18=Never No More
TTITLE19=Today, Tomorrow And Forever
EXTD=
EXTT0=
EXTT1=
EXTT2=
EXTT3=
EXTT4=
EXTT5=
EXTT6=
EXTT7=
EXTT8=
EXTT9=
EXTT10=
EXTT11=
EXTT12=
EXTT13=
EXTT14=
EXTT15=
EXTT16=
EXTT17=
EXTT18=
EXTT19=
PLAYORDER=
